<svg width="24" height="24" viewBox="0 0 24 24" fill="none" xmlns="http://www.w3.org/2000/svg">
<path fill-rule="evenodd" clip-rule="evenodd" d="M7.32501 4.25H5C3.48122 4.25 2.25 5.48122 2.25 7C2.25 8.27635 3.11953 9.34962 4.29853 9.65973L4.91365 17.6563C4.97174 18.4116 5.01871 19.0222 5.09621 19.5161C5.17617 20.0259 5.29651 20.471 5.53309 20.8795C5.9103 21.5308 6.47475 22.0534 7.15303 22.3796C7.57844 22.5842 8.0315 22.67 8.54585 22.7106C9.04432 22.75 9.65675 22.75 10.4143 22.75H13.5857C14.3432 22.75 14.9557 22.75 15.4541 22.7106C15.9685 22.67 16.4216 22.5842 16.847 22.3796C17.5253 22.0534 18.0897 21.5308 18.4669 20.8795C18.7035 20.471 18.8238 20.0259 18.9038 19.5161C18.9813 19.0222 19.0283 18.4116 19.0863 17.6564L19.7015 9.65973C20.8805 9.34962 21.75 8.27635 21.75 7C21.75 5.48122 20.5188 4.25 19 4.25H16.675C16.3275 2.53832 14.8142 1.25 13 1.25H11C9.18578 1.25 7.67247 2.53832 7.32501 4.25ZM8.87803 4.25H15.122C14.8131 3.37611 13.9797 2.75 13 2.75H11C10.0203 2.75 9.18691 3.37611 8.87803 4.25ZM18.1901 9.75H5.80991L6.40688 17.5106C6.46789 18.3037 6.51085 18.8551 6.57808 19.2837C6.64389 19.7031 6.72496 19.9444 6.83109 20.1277C7.05742 20.5184 7.39609 20.8321 7.80306 21.0278C7.9939 21.1195 8.24074 21.1818 8.664 21.2153C9.09643 21.2495 9.64952 21.25 10.4449 21.25H13.5551C14.3505 21.25 14.9036 21.2495 15.336 21.2153C15.7593 21.1818 16.0061 21.1195 16.1969 21.0278C16.6039 20.8321 16.9426 20.5184 17.1689 20.1277C17.275 19.9444 17.3561 19.7031 17.4219 19.2837C17.4892 18.8551 17.5321 18.3037 17.5931 17.5106L18.1901 9.75ZM5 5.75C4.30964 5.75 3.75 6.30964 3.75 7C3.75 7.69036 4.30964 8.25 5 8.25H19C19.6904 8.25 20.25 7.69036 20.25 7C20.25 6.30964 19.6904 5.75 19 5.75H5ZM8.42537 12.2537C8.83753 12.2125 9.20506 12.5132 9.24628 12.9254L9.74628 17.9254C9.78749 18.3375 9.48679 18.7051 9.07463 18.7463C8.66247 18.7875 8.29494 18.4868 8.25372 18.0746L7.75372 13.0746C7.71251 12.6625 8.01321 12.2949 8.42537 12.2537ZM15.5746 12.2537C15.9868 12.2949 16.2875 12.6625 16.2463 13.0746L15.7463 18.0746C15.7051 18.4868 15.3375 18.7875 14.9254 18.7463C14.5132 18.7051 14.2125 18.3375 14.2537 17.9254L14.7537 12.9254C14.7949 12.5132 15.1625 12.2125 15.5746 12.2537ZM12 12.25C12.4142 12.25 12.75 12.5858 12.75 13V18C12.75 18.4142 12.4142 18.75 12 18.75C11.5858 18.75 11.25 18.4142 11.25 18V13C11.25 12.5858 11.5858 12.25 12 12.25Z" fill="#ACACB5"/>
</svg>
