<svg width="182" height="180" viewBox="0 0 182 180" fill="none" xmlns="http://www.w3.org/2000/svg">
<path d="M45.4746 29.1757C45.4746 29.1757 72.839 49.9409 114.44 11.1131C151.386 -23.3689 181.553 31.0363 181.764 57.0903C182.037 90.8409 144.818 117.846 162.88 140.013C180.943 162.181 127.06 198.787 98.0198 167.107C61.8949 127.698 52.1084 159.718 31.5173 159.718C16.7389 159.718 -13.6026 122.997 6.88671 95.678C24.1281 72.69 14.725 65.06 10.1708 57.0903C3.60272 45.596 19.2021 14.3973 45.4746 29.1757Z" fill="#ECEBFF"/>
<path d="M153.344 124.242L52.8759 155.088C51.2112 155.598 49.412 155.427 47.8738 154.611C46.3357 153.795 45.1847 152.401 44.6739 150.736L32.9251 112.477L23.1714 80.7035L22.9825 80.0959L24.3207 78.5524L67.9825 28.2084C68.1824 27.9753 68.4444 27.8038 68.7379 27.7136C69.0315 27.6235 69.3446 27.6185 69.6409 27.6992L134.058 44.8832L136.004 45.4004L136.603 47.338L157.695 116.033C158.205 117.698 158.033 119.498 157.217 121.037C156.401 122.576 155.008 123.729 153.344 124.242Z" fill="#4D42C6"/>
<path d="M136.603 47.3374L98.5245 92.1979V89.7349L134.058 44.8826L136.004 45.3998L136.603 47.3374Z" fill="#4D42C6"/>
<path d="M153.461 124.203C153.386 124.228 153.306 124.228 153.231 124.203L91.7366 101.371C91.687 101.352 91.6425 101.322 91.6067 101.282C91.5709 101.243 91.5447 101.196 91.5304 101.145C91.516 101.094 91.5138 101.04 91.524 100.988C91.5342 100.936 91.5564 100.887 91.5889 100.845L101.868 88.0212L135.612 45.8952C135.649 45.8473 135.698 45.8105 135.755 45.7889C135.811 45.7673 135.872 45.7618 135.932 45.7728C135.991 45.7838 136.047 45.811 136.092 45.8515C136.136 45.8919 136.169 45.9439 136.187 46.0019L157.55 115.591L157.69 116.034C158.197 117.678 158.038 119.456 157.247 120.984C156.456 122.512 155.096 123.668 153.461 124.203V124.203Z" fill="#9A93EE"/>
<path d="M87.8107 98.7909L87.2525 99.9568L23.5901 80.285C23.532 80.267 23.4699 80.2652 23.4108 80.2798C23.3517 80.2945 23.2977 80.325 23.2546 80.368C23.2115 80.4111 23.181 80.4651 23.1663 80.5242C23.1517 80.5834 23.1534 80.6454 23.1714 80.7036L22.9825 80.096L24.3207 78.5525L87.8107 98.7909Z" fill="#4D42C6"/>
<path d="M91.0368 101.582L52.9498 154.99C52.9061 155.056 52.8385 155.103 52.761 155.121C51.1074 155.596 49.3332 155.403 47.8206 154.583C46.308 153.763 45.178 152.382 44.6739 150.737L32.9251 112.477L23.1714 80.7038C23.1534 80.6455 23.1517 80.5835 23.1663 80.5244C23.181 80.4653 23.2115 80.4113 23.2546 80.3682C23.2977 80.3251 23.3517 80.2946 23.4108 80.28C23.4699 80.2654 23.532 80.2671 23.5902 80.2852L87.252 99.9567L90.864 101.073C90.9139 101.089 90.9595 101.116 90.9969 101.153C91.0344 101.189 91.0627 101.234 91.0796 101.284C91.0964 101.334 91.1013 101.386 91.0939 101.438C91.0865 101.49 91.0669 101.539 91.0368 101.582V101.582Z" fill="#9A93EE"/>
<path d="M153.342 124.243L52.8799 155.088C51.3589 155.55 49.722 155.447 48.2714 154.796C46.8208 154.146 45.6545 152.993 44.9878 151.549C44.8754 151.303 44.8255 151.033 44.8426 150.762C44.8597 150.492 44.9433 150.23 45.0858 149.999L85.1237 84.7815C85.3329 84.4408 85.6591 84.1881 86.0412 84.0708C86.4233 83.9535 86.8351 83.9796 87.1994 84.1442L156.938 115.657C157.185 115.768 157.401 115.938 157.567 116.152C157.732 116.366 157.843 116.618 157.888 116.885C158.146 118.454 157.828 120.063 156.992 121.415C156.157 122.768 154.86 123.772 153.342 124.243V124.243Z" fill="#C4BEFF"/>
<path d="M133.511 21.8528C133.451 21.8527 133.393 21.8375 133.341 21.8085C133.289 21.7795 133.245 21.7378 133.214 21.6872C133.182 21.6366 133.164 21.5788 133.162 21.5194C133.159 21.4599 133.171 21.4007 133.198 21.3474C133.497 20.7416 133.658 20.4094 133.658 20.4085C133.677 20.3655 133.704 20.3267 133.739 20.2944C133.773 20.2622 133.813 20.2372 133.857 20.2209C133.902 20.2046 133.948 20.1974 133.995 20.1996C134.042 20.2019 134.088 20.2136 134.131 20.234C134.173 20.2545 134.211 20.2832 134.242 20.3186C134.273 20.354 134.296 20.3952 134.311 20.4399C134.326 20.4846 134.331 20.5317 134.327 20.5786C134.323 20.6254 134.31 20.671 134.288 20.7126C134.288 20.7126 134.127 21.0471 133.824 21.658C133.795 21.7164 133.751 21.7656 133.695 21.8C133.64 21.8344 133.576 21.8527 133.511 21.8528Z" fill="white"/>
<path d="M98.1671 71.713C98.1005 71.713 98.0353 71.6939 97.9791 71.6581C97.923 71.6223 97.8782 71.5712 97.8501 71.5108C97.8219 71.4505 97.8116 71.3833 97.8203 71.3173C97.829 71.2512 97.8564 71.189 97.8992 71.138C98.3515 70.599 98.7812 70.0643 99.1765 69.5487C99.233 69.4751 99.3165 69.4269 99.4085 69.4147C99.5006 69.4026 99.5936 69.4275 99.6673 69.484C99.741 69.5405 99.7892 69.6239 99.8013 69.716C99.8135 69.808 99.7886 69.9011 99.7321 69.9747C99.3305 70.4983 98.8943 71.0411 98.4355 71.588C98.4026 71.6271 98.3616 71.6586 98.3152 71.6802C98.2688 71.7018 98.2183 71.713 98.1671 71.713V71.713ZM100.659 68.4483C100.596 68.4483 100.533 68.4309 100.479 68.398C100.424 68.3652 100.38 68.3181 100.35 68.2619C100.32 68.2057 100.306 68.1424 100.31 68.0789C100.314 68.0154 100.334 67.9541 100.37 67.9015C100.77 67.3126 101.133 66.7351 101.447 66.1849C101.47 66.145 101.5 66.11 101.536 66.0818C101.573 66.0537 101.614 66.033 101.659 66.0209C101.703 66.0088 101.749 66.0055 101.795 66.0113C101.841 66.0171 101.885 66.0318 101.924 66.0546C101.964 66.0774 101.999 66.1078 102.028 66.1442C102.056 66.1805 102.076 66.222 102.089 66.2664C102.101 66.3107 102.104 66.357 102.098 66.4026C102.092 66.4482 102.078 66.4922 102.055 66.5321C101.732 67.0982 101.36 67.6912 100.949 68.2952C100.917 68.3424 100.874 68.381 100.823 68.4077C100.773 68.4344 100.716 68.4483 100.659 68.4483H100.659ZM100.587 65.1123H100.581C99.874 65.1155 99.1745 64.9625 98.533 64.6643C98.4913 64.6448 98.4539 64.6174 98.4229 64.5835C98.3918 64.5496 98.3678 64.5099 98.3521 64.4667C98.3363 64.4235 98.3293 64.3776 98.3313 64.3317C98.3333 64.2858 98.3444 64.2407 98.3638 64.199C98.3833 64.1574 98.4107 64.12 98.4446 64.0889C98.4785 64.0579 98.5182 64.0338 98.5614 64.0181C98.6046 64.0024 98.6505 63.9954 98.6964 63.9974C98.7423 63.9994 98.7874 64.0105 98.8291 64.0299C99.3781 64.2846 99.9766 64.4149 100.582 64.4116C100.61 64.4116 100.64 64.4116 100.668 64.4116H100.675C100.721 64.4111 100.767 64.4198 100.809 64.437C100.852 64.4542 100.891 64.4796 100.924 64.5118C100.956 64.544 100.982 64.5823 101 64.6246C101.018 64.6669 101.028 64.7124 101.028 64.7583C101.029 64.8043 101.02 64.8499 101.003 64.8925C100.986 64.9352 100.96 64.974 100.928 65.0068C100.896 65.0396 100.858 65.0657 100.815 65.0837C100.773 65.1017 100.728 65.1111 100.682 65.1116C100.65 65.112 100.619 65.1123 100.587 65.1123H100.587ZM102.672 64.8743C102.591 64.8519 102.518 64.8086 102.46 64.7486C102.402 64.6887 102.361 64.6143 102.341 64.5331C102.321 64.452 102.323 64.3671 102.347 64.2871C102.371 64.2071 102.416 64.1349 102.477 64.0779C102.683 63.5667 102.847 63.0395 102.967 62.5014C102.976 62.4561 102.994 62.413 103.02 62.3747C103.046 62.3364 103.08 62.3037 103.118 62.2784C103.157 62.253 103.201 62.2356 103.246 62.2272C103.292 62.2188 103.338 62.2194 103.384 62.2291C103.429 62.2389 103.472 62.2575 103.51 62.2839C103.548 62.3103 103.58 62.344 103.605 62.383C103.63 62.422 103.647 62.4655 103.655 62.5111C103.663 62.5567 103.662 62.6034 103.651 62.6485C103.573 63.0065 103.475 63.3599 103.357 63.7069C103.677 63.5569 104.004 63.383 104.336 63.1866C104.415 63.1429 104.509 63.132 104.597 63.156C104.684 63.18 104.759 63.2371 104.805 63.3152C104.851 63.3933 104.866 63.4864 104.844 63.5747C104.823 63.663 104.769 63.7397 104.692 63.7886C104.156 64.1098 103.594 64.3865 103.012 64.616L102.993 64.6608C102.966 64.7238 102.922 64.7776 102.864 64.8155C102.807 64.8533 102.74 64.8736 102.672 64.8737L102.672 64.8743ZM96.9987 63.5303C96.9138 63.5304 96.8317 63.4995 96.768 63.4435C96.2094 62.9761 95.738 62.4135 95.3755 61.7818C95.3516 61.7412 95.3362 61.6962 95.3301 61.6495C95.324 61.6028 95.3274 61.5554 95.34 61.51C95.3527 61.4646 95.3744 61.4223 95.4039 61.3855C95.4333 61.3487 95.4698 61.3183 95.5113 61.296C95.5528 61.2737 95.5983 61.2599 95.6453 61.2557C95.6922 61.2514 95.7395 61.2566 95.7843 61.271C95.8291 61.2854 95.8706 61.3088 95.9062 61.3396C95.9418 61.3704 95.9708 61.4081 95.9915 61.4504C96.3146 62.0083 96.7336 62.5048 97.2291 62.9172C97.2826 62.9642 97.3206 63.0263 97.3378 63.0953C97.3551 63.1644 97.3509 63.2371 97.3258 63.3037C97.3007 63.3703 97.2559 63.4277 97.1973 63.4681C97.1388 63.5086 97.0693 63.5303 96.9981 63.5303H96.9987ZM106.212 62.682C106.139 62.6821 106.067 62.6592 106.008 62.6166C105.948 62.574 105.904 62.5139 105.88 62.4445C105.857 62.3752 105.855 62.3003 105.877 62.2302C105.898 62.1602 105.941 62.0986 105.999 62.0541C106.501 61.6692 107.025 61.2316 107.555 60.7532C107.589 60.7224 107.629 60.6987 107.672 60.6833C107.715 60.6679 107.761 60.6612 107.807 60.6635C107.853 60.6659 107.898 60.6772 107.939 60.697C107.981 60.7167 108.018 60.7444 108.049 60.7786C108.08 60.8127 108.103 60.8525 108.119 60.8958C108.134 60.9392 108.141 60.9851 108.139 61.031C108.136 61.0769 108.125 61.1219 108.105 61.1634C108.085 61.2049 108.058 61.2421 108.024 61.2729C107.48 61.7637 106.942 62.2136 106.424 62.6098C106.363 62.6562 106.289 62.6812 106.212 62.6809L106.212 62.682ZM103.418 60.8845C103.334 60.8844 103.253 60.8541 103.189 60.7991C103.126 60.7441 103.084 60.6681 103.072 60.5849C102.996 59.9708 102.733 59.395 102.317 58.9363C102.255 58.8682 102.222 58.778 102.225 58.6855C102.229 58.593 102.269 58.5057 102.337 58.4428C102.405 58.3798 102.495 58.3463 102.587 58.3496C102.68 58.3529 102.767 58.3927 102.831 58.4603C103.343 59.0225 103.669 59.7293 103.765 60.484C103.771 60.5295 103.769 60.5758 103.758 60.6204C103.746 60.665 103.726 60.7069 103.699 60.7437C103.671 60.7806 103.637 60.8117 103.598 60.8352C103.558 60.8587 103.514 60.8743 103.469 60.8809C103.452 60.8833 103.435 60.8845 103.418 60.8845ZM95.4629 59.9877C95.4065 59.9877 95.351 59.9741 95.301 59.9481C95.251 59.922 95.208 59.8842 95.1758 59.838C95.1435 59.7918 95.1229 59.7384 95.1157 59.6825C95.1085 59.6266 95.1149 59.5698 95.1343 59.5169C95.3764 58.8589 95.9043 58.2857 96.6624 57.8601C96.7434 57.8147 96.839 57.8032 96.9284 57.8283C97.0178 57.8534 97.0936 57.9129 97.139 57.9939C97.1845 58.0748 97.196 58.1705 97.1709 58.2599C97.1458 58.3493 97.0862 58.4251 97.0053 58.4705C96.3947 58.8134 95.975 59.2586 95.7915 59.7585C95.7667 59.8258 95.722 59.8838 95.6632 59.9248C95.6045 59.9658 95.5345 59.9877 95.4629 59.9877V59.9877ZM109.274 59.9376C109.205 59.9376 109.137 59.9172 109.08 59.8789C109.022 59.8407 108.977 59.7863 108.951 59.7227C108.924 59.659 108.917 59.5889 108.93 59.5211C108.943 59.4534 108.976 59.391 109.024 59.3419C109.481 58.8799 109.952 58.3791 110.424 57.8551C110.487 57.7862 110.574 57.7448 110.666 57.74C110.759 57.7353 110.85 57.7676 110.919 57.8297C110.988 57.8919 111.029 57.979 111.034 58.0717C111.039 58.1644 111.006 58.2552 110.944 58.3241C110.464 58.8561 109.986 59.3634 109.523 59.8333C109.49 59.8664 109.452 59.8926 109.409 59.9105C109.366 59.9284 109.32 59.9376 109.274 59.9376V59.9376ZM100.82 58.0309C100.789 58.0309 100.759 58.0267 100.729 58.0186C100.107 57.8576 99.4603 57.8165 98.8233 57.8975C98.7777 57.903 98.7314 57.8995 98.6872 57.8871C98.6429 57.8748 98.6015 57.8538 98.5653 57.8254C98.5292 57.7971 98.4989 57.7619 98.4764 57.7218C98.4538 57.6818 98.4394 57.6377 98.4338 57.592C98.4283 57.5464 98.4319 57.5001 98.4442 57.4559C98.4566 57.4116 98.4775 57.3702 98.5059 57.334C98.5343 57.2979 98.5695 57.2676 98.6095 57.2451C98.6496 57.2225 98.6937 57.2081 98.7393 57.2025C99.4658 57.1106 100.203 57.1582 100.912 57.3425C100.994 57.3646 101.065 57.4158 101.112 57.4864C101.159 57.5571 101.179 57.6424 101.168 57.7266C101.157 57.8108 101.115 57.888 101.051 57.9439C100.987 57.9998 100.905 58.0306 100.82 58.0305V58.0309ZM112.034 56.8873C111.968 56.8872 111.903 56.8681 111.846 56.8323C111.79 56.7964 111.746 56.7453 111.717 56.6849C111.689 56.6244 111.679 56.5573 111.688 56.4912C111.697 56.4252 111.724 56.363 111.767 56.312C112.19 55.808 112.626 55.2746 113.062 54.7255C113.09 54.6888 113.126 54.658 113.166 54.635C113.206 54.6121 113.251 54.5973 113.297 54.5917C113.343 54.5861 113.39 54.5896 113.434 54.6022C113.479 54.6148 113.521 54.6361 113.557 54.665C113.593 54.6938 113.624 54.7296 113.646 54.7702C113.668 54.8108 113.682 54.8555 113.687 54.9016C113.692 54.9478 113.688 54.9944 113.675 55.0389C113.662 55.0833 113.64 55.1247 113.61 55.1606C113.17 55.7149 112.73 56.2539 112.303 56.7625C112.27 56.8016 112.229 56.833 112.183 56.8546C112.136 56.8761 112.086 56.8873 112.035 56.8873H112.034ZM114.596 53.6657C114.531 53.6657 114.467 53.6475 114.411 53.6132C114.356 53.5789 114.311 53.5299 114.282 53.4716C114.254 53.4133 114.241 53.3481 114.247 53.2833C114.253 53.2185 114.277 53.1567 114.317 53.1047C114.717 52.5754 115.127 52.0206 115.536 51.4557C115.59 51.3805 115.673 51.33 115.764 51.3154C115.856 51.3007 115.95 51.323 116.025 51.3775C116.1 51.4319 116.15 51.514 116.165 51.6057C116.18 51.6974 116.157 51.7911 116.103 51.8663C115.691 52.4351 115.278 52.9937 114.875 53.5267C114.842 53.5698 114.8 53.6048 114.752 53.629C114.704 53.6531 114.65 53.6657 114.596 53.6657H114.596ZM117.011 50.3337C116.948 50.3337 116.885 50.3161 116.83 50.2829C116.775 50.2496 116.731 50.2021 116.701 50.1454C116.672 50.0887 116.658 50.0249 116.663 49.9611C116.667 49.8973 116.688 49.8358 116.725 49.7834C117.106 49.2374 117.497 48.6674 117.887 48.0911C117.939 48.0141 118.019 47.961 118.11 47.9434C118.202 47.9257 118.296 47.945 118.373 47.997C118.45 48.049 118.503 48.1294 118.521 48.2205C118.538 48.3117 118.519 48.4061 118.467 48.4831C118.075 49.0624 117.683 49.6348 117.299 50.1843C117.267 50.2305 117.224 50.2682 117.174 50.2941C117.124 50.3201 117.068 50.3337 117.012 50.3336L117.011 50.3337ZM119.316 46.9235C119.253 46.9234 119.191 46.9063 119.137 46.874C119.083 46.8416 119.038 46.7952 119.008 46.7397C118.978 46.6841 118.964 46.6215 118.967 46.5585C118.969 46.4954 118.989 46.4343 119.024 46.3815C119.394 45.8168 119.77 45.2353 120.141 44.6532C120.191 44.575 120.27 44.5198 120.361 44.4997C120.452 44.4797 120.546 44.4965 120.625 44.5465C120.703 44.5964 120.758 44.6754 120.778 44.766C120.798 44.8567 120.781 44.9516 120.731 45.0298C120.358 45.6143 119.981 46.1983 119.609 46.7658C119.577 46.8142 119.534 46.854 119.483 46.8815C119.432 46.909 119.375 46.9233 119.317 46.9233L119.316 46.9235ZM121.533 43.4515C121.471 43.4514 121.409 43.4347 121.356 43.403C121.302 43.3713 121.257 43.3258 121.227 43.2713C121.197 43.2167 121.182 43.1551 121.183 43.0927C121.185 43.0303 121.203 42.9695 121.236 42.9165C121.591 42.3469 121.953 41.7582 122.313 41.1665C122.361 41.0872 122.439 41.0303 122.529 41.0084C122.619 40.9864 122.715 41.0012 122.794 41.0495C122.873 41.0978 122.93 41.1756 122.952 41.2658C122.974 41.356 122.959 41.4512 122.911 41.5305C122.55 42.1241 122.186 42.7149 121.83 43.2864C121.799 43.3367 121.755 43.3781 121.703 43.4069C121.651 43.4356 121.593 43.4507 121.533 43.4506L121.533 43.4515ZM123.673 39.9352C123.611 39.9351 123.55 39.9187 123.497 39.8876C123.444 39.8564 123.399 39.8117 123.369 39.758C123.338 39.7042 123.323 39.6434 123.323 39.5816C123.324 39.5198 123.341 39.4593 123.373 39.4062C123.726 38.8124 124.074 38.2222 124.416 37.6357C124.439 37.5954 124.47 37.56 124.506 37.5316C124.543 37.5031 124.585 37.4823 124.63 37.4702C124.674 37.4581 124.721 37.455 124.767 37.4611C124.813 37.4672 124.857 37.4824 124.897 37.5058C124.937 37.5292 124.972 37.5602 125 37.5972C125.028 37.6343 125.049 37.6764 125.06 37.7213C125.072 37.7662 125.074 37.813 125.067 37.8589C125.061 37.9047 125.045 37.9488 125.021 37.9885C124.678 38.5765 124.329 39.1684 123.974 39.7643C123.943 39.8163 123.899 39.8594 123.846 39.8893C123.794 39.9192 123.734 39.9349 123.673 39.9349L123.673 39.9352ZM125.748 36.3802C125.687 36.3802 125.627 36.364 125.574 36.3333C125.521 36.3027 125.477 36.2586 125.446 36.2056C125.415 36.1525 125.399 36.0923 125.399 36.031C125.399 35.9697 125.415 35.9094 125.445 35.8562C125.791 35.2522 126.129 34.6562 126.46 34.0682C126.482 34.028 126.513 33.9925 126.549 33.964C126.585 33.9354 126.626 33.9142 126.671 33.9017C126.715 33.8892 126.761 33.8855 126.807 33.891C126.853 33.8965 126.897 33.9109 126.937 33.9335C126.977 33.9561 127.013 33.9864 127.041 34.0226C127.07 34.0589 127.091 34.1005 127.103 34.1449C127.115 34.1893 127.119 34.2357 127.113 34.2814C127.107 34.3271 127.093 34.3713 127.07 34.4114C126.739 35.0002 126.4 35.5976 126.053 36.2034C126.022 36.2568 125.978 36.3011 125.924 36.3319C125.871 36.3627 125.811 36.379 125.749 36.3789L125.748 36.3802ZM127.767 32.7917C127.706 32.7917 127.647 32.7757 127.594 32.7455C127.541 32.7153 127.497 32.6718 127.466 32.6193C127.435 32.5669 127.418 32.5073 127.418 32.4465C127.417 32.3856 127.432 32.3256 127.461 32.2723C127.802 31.6563 128.131 31.0551 128.45 30.4687C128.494 30.3872 128.569 30.3265 128.658 30.3002C128.747 30.2739 128.843 30.284 128.924 30.3284C129.006 30.3727 129.067 30.4476 129.093 30.5366C129.119 30.6256 129.109 30.7215 129.065 30.803C128.746 31.3902 128.415 31.9928 128.074 32.611C128.044 32.6656 127.999 32.711 127.945 32.7426C127.892 32.7743 127.83 32.7909 127.768 32.7909L127.767 32.7917ZM129.734 29.173C129.674 29.1729 129.614 29.1571 129.562 29.1273C129.509 29.0974 129.465 29.0545 129.434 29.0026C129.403 28.9508 129.386 28.8918 129.385 28.8314C129.383 28.771 129.397 28.7112 129.426 28.6579C129.764 28.0252 130.085 27.4192 130.389 26.8399C130.41 26.7983 130.439 26.7613 130.475 26.731C130.51 26.7008 130.551 26.6778 130.595 26.6636C130.64 26.6494 130.686 26.6441 130.733 26.6481C130.779 26.6521 130.824 26.6654 130.865 26.687C130.906 26.7087 130.943 26.7383 130.972 26.7742C131.002 26.8101 131.024 26.8515 131.038 26.8961C131.051 26.9407 131.055 26.9874 131.05 27.0337C131.045 27.08 131.031 27.1248 131.009 27.1656C130.705 27.7449 130.383 28.3523 130.043 28.9878C130.013 29.0435 129.969 29.0901 129.914 29.1226C129.86 29.155 129.798 29.1722 129.735 29.1722L129.734 29.173ZM131.651 25.5253C131.591 25.5253 131.532 25.5098 131.479 25.4803C131.427 25.4509 131.383 25.4085 131.352 25.3572C131.321 25.3059 131.303 25.2474 131.301 25.1874C131.299 25.1274 131.312 25.0679 131.34 25.0146C131.688 24.3405 132.002 23.7266 132.278 23.1818C132.299 23.1406 132.327 23.1038 132.362 23.0736C132.397 23.0434 132.437 23.0204 132.481 23.006C132.525 22.9915 132.571 22.9858 132.617 22.9893C132.663 22.9927 132.708 23.0052 132.749 23.0261C132.79 23.0469 132.827 23.0757 132.857 23.1108C132.887 23.1458 132.91 23.1864 132.924 23.2303C132.938 23.2742 132.944 23.3205 132.94 23.3664C132.936 23.4124 132.923 23.4572 132.902 23.4982C132.626 24.0442 132.311 24.6602 131.962 25.3359C131.933 25.3928 131.888 25.4405 131.833 25.4737C131.778 25.507 131.715 25.5245 131.651 25.5245L131.651 25.5253Z" fill="white"/>
<path d="M96.1419 74.0031C96.0738 74.0031 96.0071 73.9832 95.9502 73.9459C95.8932 73.9086 95.8483 73.8555 95.8211 73.7931C95.7938 73.7307 95.7854 73.6617 95.7968 73.5945C95.8082 73.5274 95.8389 73.465 95.8853 73.4151C96.1271 73.1543 96.3619 72.8972 96.5897 72.6438C96.6202 72.6087 96.6574 72.58 96.699 72.5595C96.7407 72.5389 96.786 72.5268 96.8324 72.5239C96.8788 72.5211 96.9253 72.5274 96.9692 72.5427C97.0131 72.558 97.0535 72.5819 97.088 72.613C97.1226 72.644 97.1506 72.6817 97.1705 72.7237C97.1904 72.7657 97.2017 72.8112 97.2037 72.8577C97.2058 72.9041 97.1986 72.9505 97.1825 72.9941C97.1665 73.0377 97.1419 73.0777 97.1103 73.1117C96.8801 73.3678 96.6428 73.6276 96.3985 73.8909C96.3658 73.9264 96.3261 73.9546 96.2819 73.9739C96.2378 73.9932 96.1901 74.0031 96.1419 74.0031V74.0031Z" fill="white"/>
<path d="M81.4864 51.4761C81.4269 51.476 81.3683 51.4608 81.3163 51.4319C81.2643 51.4029 81.2206 51.3612 81.1892 51.3106C81.1578 51.26 81.1398 51.2023 81.137 51.1428C81.1342 51.0834 81.1465 51.0242 81.1729 50.9708C81.458 50.3943 81.612 50.0409 81.6135 50.0374C81.6508 49.9527 81.7201 49.8862 81.8062 49.8525C81.8924 49.8187 81.9884 49.8205 82.0733 49.8573C82.1582 49.8942 82.225 49.9632 82.2592 50.0492C82.2933 50.1352 82.292 50.2313 82.2556 50.3163C82.2491 50.3312 82.094 50.6873 81.8003 51.2811C81.7714 51.3396 81.7266 51.3889 81.6712 51.4234C81.6157 51.4578 81.5517 51.4761 81.4864 51.4761Z" fill="white"/>
<path d="M64.5468 68.2774C64.4788 68.2773 64.4123 68.2575 64.3554 68.2204C64.2985 68.1832 64.2537 68.1303 64.2264 68.068C64.1991 68.0058 64.1905 67.9369 64.2016 67.8699C64.2128 67.8029 64.2432 67.7405 64.2892 67.6905C64.7883 67.1473 65.2628 66.6116 65.6997 66.0987C65.7293 66.063 65.7657 66.0336 65.8067 66.0122C65.8478 65.9907 65.8927 65.9776 65.9389 65.9736C65.985 65.9697 66.0315 65.9749 66.0756 65.989C66.1197 66.0031 66.1606 66.0259 66.1959 66.0559C66.2311 66.0859 66.2601 66.1227 66.2811 66.164C66.302 66.2053 66.3146 66.2504 66.318 66.2966C66.3214 66.3428 66.3156 66.3892 66.3009 66.4331C66.2863 66.4771 66.263 66.5177 66.2325 66.5526C65.79 67.0722 65.3097 67.6145 64.8045 68.1641C64.7718 68.1999 64.732 68.2284 64.6876 68.2479C64.6432 68.2674 64.5953 68.2774 64.5468 68.2774V68.2774ZM67.3138 65.0135C67.2485 65.0135 67.1845 64.9952 67.129 64.9607C67.0736 64.9262 67.0289 64.8768 67 64.8182C66.9711 64.7597 66.9592 64.6942 66.9656 64.6292C66.9721 64.5642 66.9965 64.5023 67.0363 64.4505C67.4944 63.8535 67.9075 63.2745 68.2641 62.7303C68.2893 62.6918 68.3218 62.6587 68.3598 62.6328C68.3978 62.6069 68.4405 62.5888 68.4855 62.5794C68.5305 62.57 68.5769 62.5696 68.622 62.5782C68.6672 62.5867 68.7103 62.6041 68.7487 62.6293C68.7872 62.6545 68.8203 62.687 68.8462 62.725C68.872 62.7629 68.8902 62.8057 68.8996 62.8507C68.909 62.8957 68.9094 62.9421 68.9008 62.9872C68.8923 63.0324 68.8749 63.0754 68.8497 63.1139C68.4836 63.6728 68.0604 64.2659 67.5917 64.8766C67.559 64.9192 67.5169 64.9538 67.4687 64.9775C67.4205 65.0012 67.3675 65.0136 67.3138 65.0135V65.0135ZM69.7333 63.1031C69.6443 63.1028 69.5587 63.0687 69.494 63.0076C69.4293 62.9464 69.3903 62.863 69.3849 62.7741C69.3796 62.6853 69.4083 62.5978 69.4652 62.5293C69.5221 62.4609 69.6029 62.4167 69.6913 62.4058C70.3676 62.3186 71.0287 62.1388 71.656 61.8715C71.7416 61.8356 71.838 61.8352 71.9239 61.8704C72.0099 61.9055 72.0783 61.9734 72.1142 62.059C72.1501 62.1446 72.1506 62.241 72.1154 62.3269C72.0803 62.4128 72.0124 62.4813 71.9268 62.5172C71.2401 62.8091 70.5167 63.0054 69.7767 63.1006C69.7622 63.1023 69.7478 63.1031 69.7333 63.1031V63.1031ZM67.6052 63.0314C67.5829 63.0314 67.5607 63.0293 67.5388 63.0251C66.8062 62.8801 66.0971 62.6349 65.4315 62.2963C65.3492 62.2542 65.287 62.1813 65.2583 62.0935C65.2296 62.0057 65.2367 61.9102 65.2782 61.8276C65.3196 61.7451 65.392 61.6823 65.4796 61.6529C65.5671 61.6235 65.6628 61.6299 65.7456 61.6708C66.3537 61.9804 67.0016 62.2048 67.6709 62.3377C67.7564 62.3542 67.8327 62.4019 67.8849 62.4715C67.9371 62.5412 67.9615 62.6278 67.9532 62.7144C67.945 62.8011 67.9049 62.8815 67.8405 62.9402C67.7762 62.9988 67.6923 63.0313 67.6052 63.0314V63.0314ZM73.6624 61.5113C73.5876 61.5114 73.5148 61.4875 73.4546 61.4432C73.3943 61.3989 73.3499 61.3365 73.3277 61.2651C73.3056 61.1937 73.3069 61.117 73.3314 61.0464C73.3559 60.9758 73.4024 60.9149 73.4641 60.8726C74.0373 60.4759 74.5811 60.0384 75.0913 59.5633C75.1251 59.5321 75.1647 59.5079 75.2078 59.492C75.2509 59.4761 75.2967 59.4688 75.3427 59.4706C75.3886 59.4724 75.4337 59.4833 75.4755 59.5025C75.5172 59.5218 75.5548 59.549 75.586 59.5828C75.6172 59.6166 75.6414 59.6561 75.6573 59.6992C75.6732 59.7424 75.6805 59.7882 75.6787 59.8341C75.6769 59.8801 75.666 59.9252 75.6468 59.9669C75.6275 60.0087 75.6003 60.0462 75.5665 60.0774C75.0314 60.5753 74.4611 61.0338 73.8599 61.4494C73.8016 61.4897 73.7325 61.5113 73.6617 61.5113H73.6624ZM69.6268 61.4204C69.5675 61.4204 69.509 61.4052 69.4571 61.3764C69.4052 61.3475 69.3615 61.3059 69.3301 61.2555C69.2987 61.2051 69.2806 61.1475 69.2776 61.0882C69.2746 61.0289 69.2867 60.9698 69.3128 60.9164C69.6244 60.3084 69.8558 59.6625 70.0011 58.9949C70.0187 58.9038 70.0719 58.8234 70.1488 58.7715C70.2257 58.7195 70.3201 58.7002 70.4113 58.7179C70.5024 58.7355 70.5828 58.7887 70.6348 58.8656C70.6867 58.9425 70.706 59.0369 70.6883 59.1281C70.5314 59.8563 70.2803 60.5609 69.9414 61.2243C69.9126 61.2833 69.8677 61.3329 69.8119 61.3676C69.7562 61.4023 69.6918 61.4206 69.6261 61.4204H69.6268ZM63.83 61.129C63.7374 61.129 63.6485 61.0923 63.5829 61.0269C62.9844 60.4306 62.681 59.7949 62.681 59.1355C62.6811 59.0306 62.6889 58.9259 62.7044 58.8222C62.7182 58.7304 62.7678 58.6478 62.8425 58.5926C62.9171 58.5374 63.0106 58.5141 63.1024 58.5279C63.1942 58.5417 63.2768 58.5913 63.332 58.666C63.3872 58.7406 63.4105 58.8341 63.3967 58.9259C63.3863 58.9954 63.3811 59.0656 63.381 59.1359C63.381 59.6018 63.6152 60.0713 64.0771 60.5314C64.1262 60.5803 64.1596 60.6427 64.1733 60.7106C64.1869 60.7786 64.18 60.849 64.1535 60.9131C64.1271 60.9771 64.0822 61.0318 64.0246 61.0703C63.967 61.1088 63.8993 61.1294 63.83 61.1294V61.129ZM76.818 58.6323C76.7507 58.6323 76.685 58.6129 76.6285 58.5765C76.572 58.54 76.5272 58.4881 76.4994 58.4269C76.4717 58.3657 76.4621 58.2977 76.4719 58.2312C76.4817 58.1648 76.5105 58.1025 76.5548 58.0519C76.9979 57.5455 77.4431 56.9913 77.878 56.4045C77.9336 56.3307 78.0161 56.2817 78.1075 56.2685C78.199 56.2552 78.2919 56.2786 78.3662 56.3336C78.4404 56.3887 78.4899 56.4708 78.5038 56.5622C78.5177 56.6535 78.4949 56.7467 78.4404 56.8213C77.9942 57.4233 77.537 57.9924 77.0814 58.5129C77.0485 58.5506 77.0079 58.5808 76.9623 58.6014C76.9168 58.622 76.8673 58.6325 76.8173 58.6323H76.818ZM64.234 57.5053C64.1606 57.5053 64.089 57.4822 64.0294 57.4393C63.9698 57.3963 63.9252 57.3357 63.902 57.266C63.8788 57.1963 63.8781 57.1211 63.9 57.051C63.9219 56.9809 63.9653 56.9194 64.024 56.8753C64.6356 56.4271 65.3225 56.092 66.0521 55.8858C66.1404 55.8624 66.2344 55.8745 66.314 55.9194C66.3936 55.9644 66.4524 56.0387 66.4779 56.1264C66.5034 56.2142 66.4936 56.3085 66.4505 56.3891C66.4074 56.4697 66.3345 56.5302 66.2474 56.5578C65.5996 56.7418 64.9894 57.0386 64.4447 57.4346C64.3838 57.4805 64.3096 57.5051 64.2334 57.5048L64.234 57.5053ZM70.0861 57.3415C70.0276 57.3415 69.97 57.3269 69.9187 57.299C69.8673 57.271 69.8238 57.2306 69.792 57.1815C69.4181 56.6033 68.7342 56.4125 68.2264 56.3543C68.1804 56.3495 68.1358 56.3356 68.0951 56.3134C68.0545 56.2913 68.0187 56.2613 67.9897 56.2252C67.9607 56.1891 67.9392 56.1476 67.9264 56.1032C67.9136 56.0587 67.9097 56.0121 67.915 55.9662C67.9203 55.9202 67.9346 55.8757 67.9572 55.8353C67.9798 55.7949 68.0101 55.7594 68.0465 55.7308C68.0829 55.7023 68.1246 55.6812 68.1692 55.6688C68.2138 55.6565 68.2605 55.6531 68.3064 55.6589C69.2494 55.7671 69.9663 56.1629 70.3798 56.8014C70.414 56.8543 70.4333 56.9154 70.4357 56.9783C70.438 57.0412 70.4234 57.1036 70.3933 57.1589C70.3632 57.2142 70.3188 57.2603 70.2646 57.2925C70.2105 57.3246 70.1487 57.3416 70.0858 57.3415H70.0861ZM79.3759 55.1995C79.313 55.1995 79.2513 55.1825 79.1973 55.1504C79.1433 55.1183 79.0989 55.0722 79.0688 55.017C79.0387 54.9618 79.024 54.8995 79.0264 54.8367C79.0287 54.7739 79.0478 54.7128 79.0819 54.66C79.4574 54.0772 79.8266 53.4659 80.1795 52.8432C80.202 52.8029 80.2322 52.7674 80.2685 52.7388C80.3047 52.7102 80.3463 52.689 80.3907 52.6766C80.4352 52.6641 80.4817 52.6606 80.5275 52.6661C80.5733 52.6717 80.6176 52.6863 80.6578 52.7091C80.698 52.7318 80.7332 52.7623 80.7616 52.7988C80.7899 52.8352 80.8107 52.8769 80.8229 52.9215C80.835 52.966 80.8383 53.0125 80.8324 53.0583C80.8265 53.1041 80.8115 53.1483 80.7885 53.1883C80.4291 53.8225 80.0529 54.4451 79.6705 55.039C79.6387 55.0885 79.595 55.1292 79.5433 55.1574C79.4917 55.1856 79.4338 55.2002 79.3749 55.2001L79.3759 55.1995Z" fill="white"/>
<path d="M62.3269 70.5899C62.2577 70.5899 62.1901 70.5695 62.1326 70.5311C62.0751 70.4927 62.0302 70.4382 62.0036 70.3743C61.9771 70.3105 61.97 70.2402 61.9834 70.1724C61.9967 70.1045 62.0299 70.0421 62.0787 69.9931C62.3306 69.7411 62.5755 69.493 62.8131 69.2487C62.8779 69.1822 62.9664 69.1442 63.0593 69.143C63.1521 69.1418 63.2416 69.1776 63.3081 69.2424C63.3745 69.3072 63.4126 69.3957 63.4138 69.4885C63.415 69.5813 63.3792 69.6708 63.3144 69.7373C63.0746 69.9834 62.8277 70.2336 62.574 70.4877C62.5415 70.5202 62.503 70.5459 62.4606 70.5634C62.4182 70.581 62.3728 70.59 62.3269 70.5899V70.5899Z" fill="white"/>
</svg>
